# xmcd
#
# Track frame offsets: 
#        150
#        10543
#        21733
#        30731
#        42116
#        53221
#        66845
#        78175
#        91329
#        100524
#        108776
#        120134
#        131252
#        142389
#        152641
#        167343
#        178411
#        189744
#        200056
#        211723
#        222254
#        235768
#        247315
#        260102
#        270632
#        280697
#
# Disc length: 3892 seconds
#
# Revision: 2
# Processed by: cddbd v1.5.2PL0 Copyright (c) Steve Scherf et al.
# Submitted via: ExactAudioCopy v0.95a5
#
DISCID=6e0f321a
DTITLE=Various Artist - Cowboy Hit Parade Vol. 2
DYEAR=1900
DGENRE=Rock
TTITLE0=Waitin' for my Baby - Hawkshaw Hawkins
TTITLE1=Waxahachie Boogie Woogie Dishwasher Boy - Jim Boyd
TTITLE2=Boogie on Strings - Leon Mc Auliff
TTITLE3=Tennessee Spelling Bee - Kenny Roberts
TTITLE4=Cattin' Around - Charlie Adams
TTITLE5=Eskimo Boogie - Betty Jo Star
TTITLE6=I Need A Good Girl Bad - Wade Ray
TTITLE7=Virginia On A Saturday Night - Bob Eaton
TTITLE8=Three Blind Mice - Rob Drusky
TTITLE9=Carmen Boogie - Spade Cooley
TTITLE10=Honky Tonk Baby - Hardrock Gunter
TTITLE11=Let me in There Baby - Billy Strange
TTITLE12=Next Saturday Night - Frank King
TTITLE13=Hootin' and Howlin' - Rex Allen
TTITLE14=Giles Country Pulasky Post Office - Red Foley
TTITLE15=Pinball Boogie - Chuck Bowers
TTITLE16=Chew Tobacco Rag - Spade Cooley
TTITLE17=Say you Do - Wesly Tuttle
TTITLE18=Fishermans Boogie - Al Dexter
TTITLE19=Paper Boy Boogie - Texas Bill Strenght
TTITLE20=You Played on my Piano - Hardrock Gunter
TTITLE21=Troubles - billy jack Willis
TTITLE22=It' d Suprise You - Rosalie Allen
TTITLE23=Long John boogie - Grady Martin
TTITLE24=The Rhumba Boogie - Spade Cooley
TTITLE25=Bass Man Jive - Ocie Stockard
EXTD=
EXTT0=
EXTT1=
EXTT2=
EXTT3=
EXTT4=
EXTT5=
EXTT6=
EXTT7=
EXTT8=
EXTT9=
EXTT10=
EXTT11=
EXTT12=
EXTT13=
EXTT14=
EXTT15=
EXTT16=
EXTT17=
EXTT18=
EXTT19=
EXTT20=
EXTT21=
EXTT22=
EXTT23=
EXTT24=
EXTT25=
PLAYORDER=
